<?xml version="1.0" standalone="no"?>
<!DOCTYPE svg PUBLIC "-//W3C//DTD SVG 20010904//EN"
 "http://www.w3.org/TR/2001/REC-SVG-20010904/DTD/svg10.dtd">
<svg version="1.0" xmlns="http://www.w3.org/2000/svg"
 width="1000.000000pt" height="1000.000000pt" viewBox="0 0 1000.000000 1000.000000"
 preserveAspectRatio="xMidYMid meet">
<metadata>
Created by potrace 1.16, written by Peter Selinger 2001-2019
</metadata>
<g transform="translate(0.000000,1000.000000) scale(0.100000,-0.100000)"
fill="#000000" stroke="none">
<path d="M3979 7426 c-81 -23 -172 -79 -241 -147 -53 -54 -77 -88 -117 -170
-82 -170 -96 -238 -95 -469 0 -180 2 -203 28 -295 41 -151 160 -386 187 -369
5 3 9 2 8 -3 -3 -20 2 -25 16 -13 13 11 14 10 9 -4 -9 -23 15 -50 32 -36 9 9
11 7 7 -8 -10 -41 134 -133 263 -166 134 -35 287 -9 407 68 180 115 301 359
314 636 11 251 -63 510 -204 707 -75 105 -234 236 -264 217 -7 -4 -9 -3 -6 4
4 6 -18 19 -55 32 -79 27 -224 35 -289 16z"/>
<path d="M5741 7425 c-65 -15 -152 -55 -145 -66 2 -4 -1 -11 -7 -15 -8 -4 -9
-3 -5 4 16 26 -13 9 -77 -43 -87 -72 -155 -159 -211 -270 -98 -196 -131 -351
-123 -580 6 -175 23 -248 93 -393 121 -249 370 -376 622 -317 96 23 237 99
237 128 0 7 7 12 15 12 8 0 15 5 15 10 0 17 16 36 25 30 4 -3 14 3 21 12 12
14 12 16 0 8 -10 -5 -12 -4 -7 4 4 6 11 9 16 6 13 -8 86 99 131 190 21 45 53
135 71 200 31 113 33 130 33 285 0 244 -43 406 -147 558 -26 38 -32 41 -46 30
-15 -12 -16 -11 -3 5 13 16 9 23 -41 70 -128 122 -304 172 -467 132z"/>
<path d="M2877 6089 c-46 -11 -133 -54 -143 -71 -5 -7 4 -5 19 5 38 24 34 13
-5 -14 -17 -13 -28 -18 -24 -11 19 31 -17 7 -58 -39 -55 -61 -91 -134 -118
-242 -29 -116 -22 -323 16 -452 137 -464 549 -739 864 -576 32 16 56 34 54 41
-1 6 2 9 7 6 13 -8 62 34 55 46 -4 6 -2 8 4 4 25 -15 108 126 138 235 21 77
27 330 8 336 -7 2 -10 12 -7 22 12 47 -88 299 -148 371 -11 14 -17 19 -13 11
4 -9 3 -12 -4 -7 -6 4 -9 12 -6 19 6 17 -97 136 -161 186 -71 55 -170 108
-240 126 -64 16 -177 18 -238 4z"/>
<path d="M6873 6085 c-69 -19 -155 -63 -148 -75 3 -5 0 -7 -8 -4 -8 3 -41 -16
-75 -41 -264 -198 -417 -619 -340 -935 16 -64 66 -173 77 -166 5 3 8 -2 7 -12
0 -9 4 -16 11 -15 7 2 10 -3 7 -11 -7 -19 96 -110 160 -140 30 -14 86 -31 124
-38 134 -23 295 30 428 140 38 31 62 58 58 64 -4 6 -3 8 3 5 6 -4 18 2 28 13
10 11 16 20 13 20 -2 0 14 19 36 43 74 78 188 312 172 353 -3 8 0 14 5 14 6 0
9 9 6 20 -3 11 -2 18 3 15 14 -8 33 165 27 240 -7 80 -27 176 -36 171 -3 -2
-6 8 -7 22 -2 64 -116 236 -152 230 -9 -2 -17 2 -17 9 0 20 -16 28 -26 13 -9
-12 -10 -12 -5 3 5 15 -6 24 -52 45 -47 21 -74 27 -152 29 -61 2 -114 -2 -147
-12z"/>
<path d="M4756 5504 c-153 -28 -397 -129 -379 -157 3 -6 1 -7 -6 -3 -17 11
-132 -85 -199 -165 -61 -72 -258 -386 -256 -406 1 -7 -2 -11 -6 -8 -4 2 -38
-37 -75 -88 -40 -54 -152 -175 -270 -292 -223 -221 -282 -287 -348 -390 -98
-154 -144 -280 -167 -455 -12 -93 -6 -295 8 -286 4 2 8 -17 9 -43 2 -54 43
-174 85 -250 40 -70 126 -173 139 -165 5 3 8 0 7 -8 -2 -7 3 -12 10 -10 6 1
11 -2 10 -7 -10 -32 208 -147 342 -181 244 -60 497 -30 837 101 268 103 305
112 483 113 109 0 176 -4 225 -16 39 -9 71 -15 73 -14 3 3 61 211 113 405 21
79 40 145 41 147 2 1 215 216 473 476 582 586 533 533 510 558 -10 11 -22 17
-28 13 -5 -3 -7 -2 -4 4 3 5 -26 41 -64 79 -151 148 -248 278 -419 559 -36 59
-96 140 -133 180 -77 84 -195 177 -215 170 -7 -3 -11 -1 -8 4 15 24 -197 106
-353 135 -104 20 -326 20 -435 0z"/>
<path d="M6715 4481 c-44 -27 -167 -159 -160 -171 3 -6 12 -7 18 -4 7 4 8 3 4
-1 -9 -10 131 -155 150 -155 7 0 12 -4 11 -9 -2 -5 65 -74 147 -154 l150 -145
32 30 c18 17 31 34 30 37 -1 3 2 7 7 7 20 4 97 91 107 122 22 68 7 96 -122
225 -66 65 -124 115 -129 112 -6 -4 -9 -1 -8 7 2 7 -3 12 -10 10 -8 -1 -11 2
-8 7 3 5 -17 29 -44 55 -44 41 -54 46 -97 46 -29 0 -60 -7 -78 -19z"/>
<path d="M6417 4182 c-32 -32 -54 -62 -50 -67 5 -4 3 -5 -3 -2 -6 4 -20 -3
-30 -16 -19 -21 -19 -21 1 -7 18 14 19 14 6 -2 -7 -10 -16 -16 -20 -13 -4 2
-119 -108 -256 -245 -211 -211 -247 -251 -236 -264 11 -13 9 -14 -14 -10 -22
4 -26 2 -22 -10 6 -15 -7 -29 -30 -32 -7 -1 -58 -47 -114 -102 -102 -99 -102
-100 -90 -130 18 -42 42 -62 86 -69 36 -6 39 -4 145 102 91 91 107 111 98 124
-10 13 -10 14 2 3 12 -10 36 10 147 120 73 73 133 139 133 146 0 7 4 11 9 8
11 -7 264 251 257 263 -4 5 -2 12 4 16 6 4 8 10 5 15 -3 4 2 13 9 19 19 16 16
-9 -4 -35 -16 -21 31 18 103 85 l47 45 -57 58 c-32 32 -60 58 -63 58 -3 0 -31
-26 -63 -58z"/>
<path d="M6582 4035 c-29 -31 -49 -62 -46 -67 4 -6 3 -8 -3 -5 -5 3 -188 -173
-407 -392 -396 -396 -398 -398 -391 -432 16 -86 40 -110 119 -124 38 -8 39 -7
136 90 55 54 96 103 93 108 -3 6 -2 7 4 4 8 -5 280 264 620 613 l93 95 -23 25
c-13 14 -50 51 -83 83 l-61 58 -51 -56z"/>
<path d="M6771 3811 c-33 -37 -58 -71 -56 -75 3 -3 2 -4 -2 -1 -3 3 -15 -2
-25 -11 -15 -14 -16 -20 -5 -33 10 -14 10 -14 -3 -4 -14 10 -72 -44 -383 -355
-367 -367 -367 -368 -361 -402 11 -55 21 -68 65 -81 l40 -12 84 83 c46 46 83
88 82 94 -1 5 5 10 13 11 9 0 15 9 15 23 0 22 11 30 23 16 4 -4 1 -4 -7 1 -10
6 -12 4 -7 -4 6 -9 13 -8 27 5 10 9 16 21 12 27 -3 5 -2 7 4 4 11 -7 197 176
188 185 -4 3 -1 9 6 14 8 5 10 3 4 -7 -5 -8 1 -5 14 5 16 15 19 22 10 30 -8 8
-13 7 -16 -1 -3 -7 -9 -13 -15 -13 -6 0 -6 6 2 15 7 8 22 13 34 11 31 -6 280
242 264 262 -10 11 -8 13 7 11 27 -5 45 8 38 27 -5 13 -8 12 -27 -3 l-21 -18
19 22 c14 17 23 20 36 13 13 -7 29 4 78 53 l62 63 -58 57 c-32 31 -63 57 -69
57 -6 0 -38 -31 -72 -69z"/>
<path d="M6767 3432 c-76 -76 -134 -142 -130 -147 4 -4 3 -5 -3 -2 -12 7 -47
-25 -39 -36 3 -4 2 -5 -2 -2 -4 3 -127 -113 -273 -258 l-265 -264 -174 -59
c-95 -32 -168 -60 -163 -62 6 -2 32 4 58 13 26 8 49 13 52 10 3 -3 0 -5 -6 -5
-7 0 -12 -4 -12 -10 0 -5 9 -10 20 -10 10 0 23 -8 29 -17 8 -16 27 -18 163
-18 210 1 364 35 493 111 40 23 44 28 33 43 -12 14 -11 15 5 2 18 -14 32 -9
32 12 0 7 8 11 18 9 23 -4 134 110 179 184 47 76 95 197 114 282 12 58 21 348
11 358 -2 2 -65 -59 -140 -134z"/>
<path d="M5458 3082 c-26 -94 -45 -177 -42 -189 4 -14 -2 -35 -14 -55 -20 -32
-85 -249 -77 -256 2 -2 23 3 47 12 24 9 33 14 22 12 -17 -3 -20 1 -17 15 6 23
29 25 40 4 8 -13 22 -11 102 16 62 21 89 34 80 40 -8 4 -23 6 -35 3 -16 -4
-23 0 -27 15 -3 14 -10 19 -21 15 -11 -4 -19 2 -26 21 -5 14 -14 24 -19 21 -4
-3 -17 4 -27 16 -12 13 -13 18 -4 13 8 -5 4 4 -8 20 -12 16 -19 31 -14 34 8 6
53 152 92 302 13 51 15 71 6 87 -9 18 -18 -3 -58 -146z"/>
</g>
</svg>
