<?xml version="1.0" standalone="no"?>
<!DOCTYPE svg PUBLIC "-//W3C//DTD SVG 20010904//EN"
 "http://www.w3.org/TR/2001/REC-SVG-20010904/DTD/svg10.dtd">
<svg version="1.0" xmlns="http://www.w3.org/2000/svg"
 width="1000.000000pt" height="1000.000000pt" viewBox="0 0 1000.000000 1000.000000"
 preserveAspectRatio="xMidYMid meet">
<metadata>
Created by potrace 1.16, written by Peter Selinger 2001-2019
</metadata>
<g transform="translate(0.000000,1000.000000) scale(0.100000,-0.100000)"
fill="#000000" stroke="none">
<path d="M3964 7426 c-172 -54 -323 -215 -395 -423 -131 -378 -26 -872 235
-1111 71 -65 153 -114 236 -142 95 -33 230 -32 326 2 181 63 311 207 384 425
41 124 54 231 47 388 -19 406 -235 749 -536 852 -76 26 -228 30 -297 9z"/>
<path d="M5700 7417 c-255 -87 -449 -347 -516 -693 -23 -118 -23 -330 1 -439
74 -344 291 -555 575 -557 151 -2 272 49 397 166 191 178 294 438 294 744 0
278 -75 487 -230 643 -114 115 -218 159 -370 159 -62 0 -104 -7 -151 -23z"/>
<path d="M2906 6099 c-188 -31 -334 -202 -373 -434 -14 -85 -14 -116 -5 -212
32 -307 179 -568 401 -714 110 -72 214 -103 330 -97 78 4 99 9 163 40 187 93
288 281 288 537 0 250 -104 493 -290 681 -78 79 -110 104 -180 138 -83 42
-195 73 -255 71 -16 -1 -52 -5 -79 -10z"/>
<path d="M6930 6103 c-114 -19 -245 -88 -344 -183 -97 -92 -152 -168 -210
-291 -72 -149 -91 -236 -90 -414 0 -134 3 -158 26 -227 72 -214 241 -347 443
-348 251 0 522 225 646 536 90 229 90 494 -2 676 -38 76 -122 166 -189 202
-77 42 -197 63 -280 49z"/>
<path d="M4850 5524 c-279 -36 -453 -117 -630 -294 -84 -84 -118 -127 -169
-215 -165 -282 -228 -363 -516 -655 -293 -298 -364 -395 -435 -589 -64 -176
-77 -425 -31 -606 58 -225 205 -411 405 -510 128 -63 223 -86 387 -92 220 -9
369 21 656 131 333 128 502 143 771 67 57 -16 101 -26 98 -23 -3 2 -52 30
-108 62 -92 50 -107 62 -135 110 -27 45 -33 64 -33 113 0 64 28 137 172 457
120 264 348 789 348 800 0 6 -16 18 -35 27 -19 9 -35 24 -35 32 1 35 96 176
139 206 37 26 51 30 109 29 63 0 74 -4 200 -71 l133 -70 52 51 52 51 -56 65
c-87 102 -141 177 -204 285 -115 198 -191 298 -304 398 -119 106 -282 184
-466 222 -78 16 -298 27 -365 19z"/>
<path d="M5775 4492 c-11 -4 -30 -14 -41 -22 -21 -15 -64 -81 -64 -96 0 -5 17
-18 38 -30 179 -99 476 -260 557 -304 55 -29 199 -108 320 -175 213 -118 339
-185 350 -185 2 0 14 19 26 43 26 50 29 113 6 147 -9 14 -86 63 -179 114 -90
49 -164 90 -166 91 -1 1 12 32 29 69 29 62 31 71 20 106 -13 45 -24 54 -186
143 -171 95 -212 92 -274 -18 -17 -30 -34 -55 -37 -55 -3 0 -76 38 -162 85
-157 84 -199 100 -237 87z m685 -185 c86 -46 116 -67 118 -84 4 -25 -23 -82
-42 -89 -12 -5 -237 113 -261 137 -13 13 33 99 54 99 9 0 68 -28 131 -63z"/>
<path d="M5685 4185 c-14 -32 -25 -59 -25 -61 0 -2 -15 -36 -34 -76 -43 -92
-144 -318 -251 -563 -45 -104 -104 -237 -130 -295 -36 -79 -48 -118 -49 -155
-1 -82 22 -109 149 -178 323 -175 445 -243 495 -272 73 -44 119 -52 175 -30
51 19 68 40 300 385 76 113 193 284 260 380 196 281 224 325 216 333 -5 5 -89
52 -187 106 -99 53 -333 181 -521 284 -188 103 -349 190 -357 193 -11 4 -22
-10 -41 -51z m166 -215 c11 -6 19 -21 19 -36 0 -15 -74 -200 -165 -413 -214
-499 -209 -489 -240 -497 -28 -7 -65 18 -65 43 0 12 114 282 292 693 45 102
88 193 96 203 17 19 35 21 63 7z m333 -186 c29 -28 33 -19 -124 -299 -37 -66
-108 -192 -157 -280 -50 -88 -107 -193 -128 -233 -28 -53 -44 -74 -63 -79 -60
-15 -78 42 -36 115 14 26 116 209 226 407 110 198 207 366 216 373 22 16 47
15 66 -4z m324 -176 c15 -15 15 -53 1 -80 -6 -11 -54 -79 -107 -151 -97 -134
-314 -441 -390 -553 -44 -66 -69 -80 -101 -57 -47 32 -51 27 383 638 70 99
135 188 143 198 19 20 54 22 71 5z"/>
<path d="M6857 3577 c-38 -52 -243 -346 -387 -557 -74 -107 -174 -253 -222
-324 l-89 -129 53 6 c187 23 377 120 503 259 68 76 146 228 176 343 36 140 38
415 4 429 -9 3 -24 -8 -38 -27z"/>
</g>
</svg>
